<?xml version="1.0" encoding="UTF-8"?>
<!DOCTYPE svg PUBLIC "-//W3C//DTD SVG 1.1//EN" "http://www.w3.org/Graphics/SVG/1.1/DTD/svg11.dtd">
<!-- Creator: CorelDRAW X6 -->
<svg xmlns="http://www.w3.org/2000/svg" xml:space="preserve" width="119.611mm" height="81.3312mm" version="1.1" style="shape-rendering:geometricPrecision; text-rendering:geometricPrecision; image-rendering:optimizeQuality; fill-rule:evenodd; clip-rule:evenodd"
viewBox="0 0 11054 7517"
 xmlns:xlink="http://www.w3.org/1999/xlink">
 <defs>
  <style type="text/css">
   <![CDATA[
    .fil1 {fill:#FEFEFE}
    .fil3 {fill:url(#id0)}
    .fil2 {fill:url(#id1)}
    .fil0 {fill:url(#id2)}
   ]]>
  </style>
  <linearGradient id="id0" gradientUnits="userSpaceOnUse" x1="5396.34" y1="-1333.11" x2="6535.83" y2="4660.53">
   <stop offset="0" style="stop-color:#957531"/>
   <stop offset="0.0392157" style="stop-color:#957531"/>
   <stop offset="0.101961" style="stop-color:#C8A13F"/>
   <stop offset="0.168627" style="stop-color:#AA6B11"/>
   <stop offset="0.34902" style="stop-color:#FFCD42"/>
   <stop offset="0.4" style="stop-color:#FFE673"/>
   <stop offset="0.478431" style="stop-color:#FFFFA5"/>
   <stop offset="0.54902" style="stop-color:#FFE674"/>
   <stop offset="0.639216" style="stop-color:#FFCD42"/>
   <stop offset="0.980392" style="stop-color:#D18322"/>
   <stop offset="1" style="stop-color:#F99C33"/>
  </linearGradient>
  <linearGradient id="id1" gradientUnits="userSpaceOnUse" xlink:href="#id0" x1="4499.38" y1="793.215" x2="4817.64" y2="2467.22">
  </linearGradient>
  <linearGradient id="id2" gradientUnits="userSpaceOnUse" xlink:href="#id0" x1="5270.22" y1="5238.72" x2="5707.68" y2="7539.76">
  </linearGradient>
 </defs>
 <g id="Layer_x0020_1">
  <metadata id="CorelCorpID_0Corel-Layer"/>
  <path class="fil0" d="M3988 7517l2 0c101,0 180,-24 236,-72 56,-48 84,-114 84,-198l0 -687c0,-9 -3,-17 -8,-24 -6,-6 -14,-9 -25,-9l-97 0c-31,1 -54,10 -70,27 -16,17 -23,40 -23,67l0 625c0,28 -8,51 -24,68 -16,17 -41,26 -73,26 -33,0 -58,-9 -73,-26 -16,-17 -23,-40 -23,-68l0 -1713c0,-28 8,-51 24,-69 16,-17 40,-26 72,-26 33,0 58,8 73,26 16,17 23,40 23,69l0 646c0,27 8,49 24,67 16,17 40,26 72,26l93 0c11,0 19,-3 25,-9 6,-6 8,-14 8,-24l0 -705c0,-42 -7,-80 -22,-113 -15,-33 -37,-61 -65,-85 -28,-24 -62,-41 -102,-54 -39,-13 -83,-19 -131,-19 -101,0 -179,24 -235,72 -56,48 -84,114 -84,198l0 1713c0,42 8,79 23,112 15,33 37,61 65,85 28,24 62,42 101,55 38,12 81,19 129,19zm3667 0l2 0c101,0 180,-24 236,-72 56,-48 84,-114 84,-198l0 -750c0,-9 -3,-17 -8,-24 -6,-6 -14,-9 -25,-9l-255 0c-10,0 -18,3 -25,8 -7,5 -10,13 -10,24l0 88c0,30 9,53 28,68 18,15 42,23 72,23l0 572c0,28 -8,51 -24,68 -16,17 -41,26 -73,26 -33,0 -58,-9 -73,-26 -16,-17 -23,-40 -23,-68l0 -1713c0,-28 8,-51 24,-69 16,-17 40,-26 72,-26 33,0 58,8 73,26 16,17 23,40 23,69l0 710c0,27 8,49 24,67 16,17 40,26 72,26l93 0c11,0 19,-3 25,-9 6,-6 8,-14 8,-24l0 -770c0,-42 -7,-80 -22,-113 -15,-33 -37,-61 -65,-85 -28,-24 -62,-41 -102,-54 -39,-13 -83,-19 -131,-19 -101,0 -179,24 -235,72 -56,48 -84,114 -84,198l0 1713c0,42 8,79 23,112 15,33 37,61 65,85 28,24 62,42 101,55 38,12 81,19 129,19zm-5458 -2197l0 2139c0,9 3,17 8,23 6,6 14,9 25,9l445 0c10,0 18,-3 25,-8 7,-5 10,-13 10,-24l0 -54c0,-27 -8,-49 -23,-66 -16,-17 -36,-25 -62,-25l-205 0 0 -828 172 0c26,0 46,-8 62,-25 16,-17 23,-39 23,-66l0 -54c0,-11 -3,-18 -10,-24 -7,-5 -15,-8 -25,-8l-222 0 0 -847 205 0c26,0 46,-8 62,-25 16,-17 23,-39 23,-66l0 -54c0,-10 -3,-18 -10,-24 -7,-5 -15,-8 -25,-8l-445 0c-11,0 -19,3 -25,9 -5,6 -8,14 -8,23zm1187 1070l130 1069c1,9 -1,17 -7,24 -6,6 -15,9 -26,9l-93 0c-32,0 -56,-9 -71,-26 -15,-17 -24,-39 -26,-67l-75 -778 -73 778c-2,27 -11,49 -26,67 -15,17 -39,26 -71,26l-93 0c-11,0 -19,-3 -26,-9 -6,-6 -9,-14 -8,-24l130 -1069 -130 -1069c-1,-9 2,-17 8,-24 6,-6 14,-9 26,-9l93 0c32,0 56,8 71,26 15,17 23,40 26,67l73 778 75 -778c2,-27 11,-50 26,-67 15,-17 38,-26 71,-26l93 0c11,0 19,3 25,9 6,6 8,14 8,24l-130 1069zm1341 -1102c29,0 52,7 70,22 18,15 27,34 27,58l0 913 193 0 0 -913c0,-24 9,-44 27,-58 18,-15 41,-22 70,-22l93 0c11,0 19,3 25,9 6,6 8,14 8,24l0 2138c0,9 -3,17 -8,24 -6,6 -14,9 -25,9l-93 0c-32,0 -56,-9 -72,-26 -16,-17 -24,-39 -24,-67l0 -942 -193 0 0 942c0,27 -8,49 -24,67 -16,17 -41,26 -73,26l-93 0c-11,0 -19,-3 -25,-9 -6,-6 -8,-14 -8,-24l0 -2138c0,-9 3,-17 8,-24 6,-6 14,-9 25,-9l93 0zm1185 0c11,0 19,3 25,9 6,6 9,14 10,22l200 2134c1,9 -2,18 -9,27 -7,8 -19,13 -34,13l-82 0c-28,0 -51,-8 -69,-23 -18,-15 -29,-34 -31,-56l-19 -301 -171 0 -18 301c-2,22 -12,40 -31,56 -18,15 -42,23 -69,23l-82 0c-16,0 -27,-4 -34,-13 -7,-8 -11,-17 -9,-27l200 -2134c1,-8 4,-16 10,-22 6,-6 13,-9 23,-9l190 0zm-170 1649l150 0 -76 -1178 -74 1178zm1257 -1649c11,0 19,3 25,9 6,6 8,14 8,24l0 2138c0,9 -3,17 -8,24 -6,6 -14,9 -25,9l-93 0c-29,0 -51,-7 -67,-20 -16,-13 -25,-30 -28,-52 0,-13 -4,-42 -12,-88 -8,-46 -19,-102 -32,-168 -13,-66 -27,-138 -43,-216 -16,-79 -31,-158 -47,-237 -16,-79 -30,-155 -44,-227 -14,-72 -26,-135 -34,-187l17 1104c1,27 -7,49 -23,67 -17,17 -41,26 -73,26l-93 0c-11,0 -19,-3 -25,-9 -6,-6 -8,-14 -8,-24l0 -2138c0,-9 3,-17 8,-24 6,-6 14,-9 25,-9l93 0c28,0 51,7 68,21 17,14 27,33 29,56 2,17 7,51 15,103 8,52 18,114 30,186 12,72 26,150 40,235 14,84 29,167 44,249 15,81 29,157 43,228 14,70 26,128 37,173l-17 -1170c0,-24 9,-44 27,-58 18,-15 41,-22 70,-22l93 0zm1746 0c10,0 18,3 25,8 7,5 10,13 10,24l0 54c0,27 -8,49 -23,66 -16,17 -36,25 -62,25l-205 0 0 847 222 0c10,0 18,3 25,8 7,5 10,13 10,24l0 54c0,27 -8,49 -23,66 -16,17 -36,25 -62,25l-172 0 0 828 205 0c26,0 46,8 62,25 16,17 23,39 23,66l0 54c0,10 -3,18 -10,24 -7,5 -15,8 -25,8l-445 0c-11,0 -19,-3 -25,-9 -6,-6 -8,-14 -8,-24l0 -2138c0,-9 3,-17 8,-24 6,-6 14,-9 25,-9l445 0z"/>
  <path class="fil1" d="M0 6066l742 2c83,-137 948,-1356 1046,-1491 207,-287 483,-705 692,-978 16,-21 14,-20 30,-34l508 725 -510 -1c-46,92 -332,447 -348,507l1950 0c-25,-58 -559,-818 -640,-936 -73,-105 -148,-210 -217,-315 -89,-136 -350,-526 -452,-611 -99,-82 -260,-126 -424,-75 -125,38 -227,154 -288,243l-2089 2965z"/>
  <path class="fil1" d="M6109 4793l1715 -1c21,-6 525,-481 536,-502 -214,-3 -1561,20 -1642,-9l1 -252 1209 -4c33,-78 307,-378 334,-447l-1543 0 0 -230c409,-10 829,8 1217,0 60,-1 57,-11 85,-49 44,-60 78,-99 120,-156l177 -228c17,-23 48,-51 47,-78l-2252 0 -4 1956z"/>
  <path class="fil1" d="M5052 3793l-1432 0c7,32 520,766 622,911 48,69 30,91 129,90l648 0c-13,-43 -128,-199 -162,-249 -48,-70 -132,-177 -167,-248 447,-13 1009,28 1231,-429 155,-319 45,-732 -324,-914 -336,-166 -845,-118 -1258,-118 -213,0 -1265,-13 -1381,4 21,52 141,210 184,271l138 202c24,35 32,33 79,33 258,1 1709,-20 1835,11 249,62 288,431 -142,433z"/>
  <path class="fil2" d="M4602 2452l-1266 0c-122,0 -237,-17 -344,-52 -107,-35 -199,-86 -278,-153 -79,-68 -140,-152 -185,-253 -45,-101 -67,-218 -67,-352 0,-288 88,-499 264,-633 176,-134 440,-201 793,-201 352,0 615,67 792,201 176,134 265,345 265,633 0,105 -21,195 -63,271l-480 0c35,-29 59,-66 75,-111 15,-45 23,-98 23,-159 0,-87 -11,-157 -32,-211 -22,-54 -57,-96 -105,-126 -48,-30 -111,-50 -189,-60 -78,-10 -173,-16 -285,-16 -112,0 -207,5 -285,16 -78,10 -141,31 -189,60 -48,30 -83,72 -105,126 -22,54 -32,124 -32,211 0,76 10,139 29,188 19,50 48,90 84,121 37,31 82,52 135,65 53,13 113,19 179,19l93 0c29,0 59,0 90,1 31,1 59,3 85,6 -22,-16 -47,-35 -76,-58 -29,-23 -55,-45 -80,-68l-184 -159 583 0 754 693zm2252 0l-599 0 -322 -428 -687 0 0 428 -447 0 0 -826 1258 0c69,0 127,-16 175,-48 48,-32 71,-77 71,-133 0,-63 -22,-110 -65,-141 -43,-31 -104,-47 -182,-47l-1258 0 292 -420 929 0c82,0 167,8 255,25 88,17 168,47 240,91 72,44 131,102 178,176 47,74 70,169 70,285 0,63 -9,122 -26,179 -17,56 -42,107 -75,152 -32,45 -72,83 -119,115 -47,31 -100,54 -159,66 24,21 52,48 82,80 30,32 71,77 121,133l266 314z"/>
  <path class="fil3" d="M8044 4794l1211 -1155c0,0 -1419,-5107 -7755,-2783 0,0 1316,-803 3106,-853 805,-23 1705,107 2625,530 0,0 887,329 1899,1624 490,626 860,1578 1302,2639l-542 -1 -134 0 -250 -576 -633 573 -830 3z"/>
  <polygon class="fil1" points="10154,3588 9895,3104 10224,2843 11054,2839 "/>
 </g>
</svg>
